<svg class="icon" style="width: 1em; height: 1em;vertical-align: middle;fill: currentColor;overflow: hidden;" viewBox="0 0 1024 1024" version="1.1" xmlns="http://www.w3.org/2000/svg"><path d="M642.4 854.88a16 16 0 0 0-14.32-8.88H518v-112h-80v112H328a16 16 0 0 0-14.32 8.88l-24 80a16 16 0 0 0 14.32 23.2h348.08a16 16 0 0 0 14.32-23.2zM704 266.32V224h34.72v-58H217.28V224h34.72v42.16h-2.08a124 124 0 1 0 13.04 247.28 226.8 226.8 0 0 0 215.04 156.56A226.8 226.8 0 0 0 692.8 513.76h5.2a123.92 123.92 0 0 0 5.92-248z m-453.92 216a92 92 0 0 1 0-184h2.08v145.76a224.88 224.88 0 0 0 3.2 37.68c-1.84 0.08-3.6 0.24-5.36 0.24z m170.48 30.72L388 496l-32.48 17.12 6.24-36.24-26.32-25.6 36.32-5.28 16-32.96 16 32.96 36.32 5.28-26.32 25.6zM476 376l-56.88 29.92 10.88-63.28L384 298.08l63.6-9.2 28.4-57.6 28.4 57.6L568 298.08l-46 44.8 10.88 63.28z m128.48 136.72L572 496l-32.48 17.12 6.24-36.24-26.32-25.6 36.32-5.28 16-32.96 16 32.96 36.32 5.28-26.32 25.6z m96-30.88a224.8 224.8 0 0 0 3.52-37.76V298.32a91.92 91.92 0 0 1-3.28 183.6zM167.12 594l-4.4 22.48-22.48 4.4 22.48 4.4 4.4 22.48 4.4-22.48 22.48-4.4-22.48-4.4-4.4-22.48zM795.12 191.76l10.32-52.56 52.56-10.32-52.56-10.32-10.32-52.56-10.32 52.56-52.56 10.32 52.56 10.32 10.32 52.56zM868.88 223.12l-5.76-29.12-5.76 29.12-29.12 5.76 29.12 5.76 5.76 29.12 5.76-29.12 29.12-5.76-29.12-5.76z" /></svg>